<?xml version="1.0" standalone="no"?>
<!DOCTYPE svg PUBLIC "-//W3C//DTD SVG 20010904//EN"
 "http://www.w3.org/TR/2001/REC-SVG-20010904/DTD/svg10.dtd">
<svg version="1.0" xmlns="http://www.w3.org/2000/svg"
 width="700.000000pt" height="700.000000pt" viewBox="0 0 700.000000 700.000000"
 preserveAspectRatio="xMidYMid meet">
<metadata>
Created by potrace 1.11, written by Peter Selinger 2001-2013
</metadata>
<g transform="translate(0.000000,700.000000) scale(0.100000,-0.100000)"
fill="#000000" stroke="none">
<path d="M3335 6866 c-59 -28 -117 -86 -142 -141 -14 -34 -18 -78 -21 -277
l-4 -238 -197 0 c-219 0 -295 -10 -352 -45 -54 -35 -78 -63 -106 -123 -45 -97
-22 -222 55 -300 70 -69 100 -76 359 -82 127 -3 234 -8 238 -11 10 -11 -14
-202 -36 -287 -19 -70 -67 -198 -87 -230 -6 -8 -35 14 -99 77 -400 391 -995
534 -1587 381 -222 -57 -375 -129 -611 -285 -148 -98 -185 -133 -306 -291
-230 -299 -333 -583 -346 -954 -18 -499 172 -1045 564 -1618 144 -211 204
-282 332 -391 200 -170 278 -270 317 -406 13 -46 15 -83 11 -170 -6 -125 -27
-207 -92 -366 -41 -99 -43 -110 -32 -145 17 -59 125 -161 222 -211 426 -219
1315 -366 2215 -367 663 0 972 55 1495 268 258 105 406 195 535 325 59 59 97
108 122 156 44 85 78 197 78 256 -1 132 -94 388 -225 618 l-48 85 94 85 c145
131 445 434 549 556 489 573 727 1135 681 1604 -29 284 -117 492 -302 709
-330 388 -972 622 -1574 572 -360 -29 -689 -139 -947 -316 -93 -63 -93 -63
-109 -42 -9 12 -27 47 -39 77 -33 81 -104 219 -139 271 l-31 45 213 5 c207 5
213 6 269 33 192 94 200 362 14 476 -50 31 -137 41 -347 41 l-197 0 -4 238
c-3 217 -5 241 -24 282 -65 136 -228 198 -359 136z m237 -1557 c21 -22 51 -66
67 -98 l30 -58 -83 -104 c-45 -57 -96 -125 -114 -151 -18 -27 -36 -48 -40 -47
-4 0 -22 30 -40 67 l-33 67 54 106 c30 59 65 141 78 183 13 42 28 76 33 76 5
0 26 -18 48 -41z m1604 -33 c180 -44 351 -116 577 -243 76 -43 114 -73 170
-134 108 -116 202 -291 248 -465 31 -113 38 -356 14 -494 -49 -293 -213 -624
-469 -941 -199 -248 -601 -630 -729 -693 -181 -89 -416 -142 -792 -178 -137
-13 -858 -17 -907 -5 l-27 7 60 101 c39 64 66 98 74 95 36 -14 157 404 305
1054 137 599 204 817 345 1105 166 342 352 558 597 697 121 68 273 117 368
117 37 1 109 -10 166 -23z m-3367 -21 c111 -22 231 -60 306 -97 125 -63 305
-287 424 -525 185 -371 293 -769 451 -1657 87 -490 107 -576 170 -728 l49
-120 -97 6 c-480 34 -1310 140 -1452 186 -424 139 -771 553 -970 1160 -53 159
-91 319 -115 477 -45 306 27 759 163 1018 l47 90 100 52 c180 94 303 135 455
152 118 13 368 6 469 -14z m4262 -145 c69 -35 167 -128 226 -216 151 -223 222
-515 193 -799 -31 -304 -137 -578 -347 -893 -90 -135 -114 -158 -37 -35 132
209 236 458 287 683 30 132 32 464 3 585 -57 244 -169 462 -323 625 -41 44
-72 80 -69 80 4 0 34 -14 67 -30z m-3076 -1006 c67 -166 113 -313 166 -532 85
-353 156 -904 120 -926 -11 -7 -10 -14 -61 284 -93 532 -145 786 -220 1071
-27 103 -54 199 -60 213 -11 29 -13 42 -5 35 2 -3 30 -68 60 -145z m-941
-2074 c586 -82 890 -111 1401 -131 642 -24 1198 34 1513 160 29 12 57 21 62
21 16 0 109 -151 125 -202 30 -102 10 -164 -76 -242 -168 -151 -528 -238
-1194 -287 -422 -32 -1448 -5 -1847 47 -45 6 -48 5 -58 -20 -25 -68 -24 -73
22 -100 123 -72 411 -135 775 -171 335 -32 518 -39 1028 -39 508 0 787 10
1114 39 85 8 156 13 158 11 5 -4 -52 -19 -207 -55 -634 -146 -1737 -160 -2537
-31 -213 34 -457 96 -565 142 -56 24 -67 48 -75 158 -4 65 -1 81 19 120 66
127 294 167 846 149 119 -4 361 -11 537 -14 727 -16 1181 51 1564 231 106 50
113 55 107 78 -11 44 -25 76 -34 76 -4 0 -57 -9 -118 -20 -335 -62 -726 -94
-1154 -94 -521 0 -980 43 -1430 134 -162 33 -400 96 -414 110 -5 5 13 2 39 -5
26 -8 206 -37 399 -65z"/>
</g>
</svg>
